<svg width="214.000000" height="195.000000" viewBox="0 0 214 195" fill="none" xmlns="http://www.w3.org/2000/svg" xmlns:xlink="http://www.w3.org/1999/xlink">
	<desc>
			Created with Pixso.
	</desc>
	<defs/>
	<g opacity="0.300000">
		<ellipse id="Ellipse 8" cx="107.000000" cy="97.500000" rx="107.000008" ry="97.500000" fill="#121212" fill-opacity="1.000000"/>
	</g>
	<path id="Play" d="M83.36 70.4C83.36 66.58 88.87 64.36 92.82 65.85C97.34 68.6 135.8 88.63 139.28 91.3C142.75 93.97 143.75 98.22 139.04 101.38C134.33 104.53 96.87 124.92 92.82 126.69C88.76 128.46 83.53 126.05 83.36 121.57C83.19 117.09 83.36 74.21 83.36 70.4ZM89.05 73.71C89.05 74.69 89.01 117.84 88.95 118.73C88.86 120.18 90.22 121.65 92.13 120.78C94.03 119.91 133.36 98.21 134.93 97.65C136.49 97.09 136.39 95.66 134.93 94.76C133.47 93.87 93.42 72.68 92.24 71.75C91.07 70.82 89.05 72.21 89.05 73.71Z" fill="#121212" fill-opacity="1.000000" fill-rule="evenodd"/>
</svg>
